<svg width="800" height="800" viewBox="0 0 800 800" fill="none" xmlns="http://www.w3.org/2000/svg">
<path d="M680.244 305.75C697.987 305.75 707.367 296.042 707.367 278.296V196.265C707.367 127.292 672.543 92.8047 602.231 92.8047H520.534C502.789 92.8047 493.079 102.515 493.079 119.59C493.079 137 502.789 146.712 520.534 146.712H601.561C634.374 146.712 653.459 164.458 653.459 199.278V278.296C653.459 296.042 663.169 305.75 680.244 305.75ZM119.753 305.75C137.164 305.75 146.539 296.042 146.539 278.296V199.278C146.539 164.458 165.289 146.712 198.771 146.712H279.797C297.209 146.712 306.919 137 306.919 119.59C306.919 102.515 297.209 92.8047 279.797 92.8047H197.766C128.124 92.8047 92.6328 127.292 92.6328 196.265V278.296C92.6328 296.042 102.343 305.75 119.753 305.75ZM254.686 534.099H537.946C560.043 534.099 576.114 518.698 576.114 497.269V327.179C576.114 305.75 560.043 290.349 537.946 290.349H487.051C478.681 290.349 474.329 288.006 467.297 279.635L460.267 270.93C452.566 261.22 443.19 256.868 431.807 256.868H361.494C349.44 256.868 340.066 261.22 332.364 270.93L325.333 279.635C318.301 288.006 314.284 290.349 306.583 290.349H254.686C232.587 290.349 217.186 305.75 217.186 327.179V497.269C217.186 518.698 232.587 534.099 254.686 534.099ZM396.65 484.88C352.12 484.88 315.959 448.385 315.959 403.855C315.959 358.653 352.12 322.492 396.65 322.492C441.851 322.492 477.677 358.653 477.677 403.855C477.677 448.385 441.851 484.88 396.65 484.88ZM396.65 461.109C428.459 461.109 454.24 435.662 454.24 403.855C454.24 371.376 428.459 345.93 396.65 345.93C364.841 345.93 339.396 371.376 339.396 403.855C339.396 435.662 364.841 461.109 396.65 461.109ZM197.766 707.202H279.797C297.209 707.202 306.919 697.492 306.919 680.416C306.919 663.006 297.209 653.296 279.797 653.296H198.771C165.289 653.296 146.539 635.55 146.539 600.729V521.712C146.539 503.966 136.829 494.256 119.753 494.256C102.007 494.256 92.6328 503.966 92.6328 521.712V603.408C92.6328 672.715 128.124 707.202 197.766 707.202ZM520.534 707.202H602.231C672.543 707.202 707.367 672.38 707.367 603.408V521.712C707.367 503.966 697.657 494.256 680.244 494.256C662.834 494.256 653.459 503.966 653.459 521.712V600.729C653.459 635.55 634.374 653.296 601.561 653.296H520.534C502.789 653.296 493.079 663.006 493.079 680.416C493.079 697.492 502.789 707.202 520.534 707.202Z" fill="white"/>
</svg>
