<svg width="800" height="800" viewBox="0 0 800 800" fill="none" xmlns="http://www.w3.org/2000/svg">
<g clip-path="url(#clip0_1138_162)">
<mask id="mask0_1138_162" style="mask-type:luminance" maskUnits="userSpaceOnUse" x="0" y="0" width="800" height="800">
<path d="M800 0H0V800H800V0Z" fill="white"/>
</mask>
<g mask="url(#mask0_1138_162)">
<path d="M400 700.001C565.687 700.001 700 565.684 700 400.001C700 234.315 565.687 100 400 100C234.315 100 100 234.315 100 400.001C100 449.588 112.031 496.364 133.333 537.574L100 700.001L262.427 666.668C303.635 687.968 350.413 700.001 400 700.001Z" stroke="#71717A" stroke-width="83.3333" stroke-linecap="round" stroke-linejoin="round"/>
<path d="M250.333 400H250V400.333H250.333V400Z" stroke="#71717A" stroke-width="125" stroke-linejoin="round"/>
<path d="M400.333 400H400V400.333H400.333V400Z" stroke="#71717A" stroke-width="125" stroke-linejoin="round"/>
<path d="M550.333 400H550V400.333H550.333V400Z" stroke="#71717A" stroke-width="125" stroke-linejoin="round"/>
</g>
</g>
<defs>
<clipPath id="clip0_1138_162">
<rect width="800" height="800" fill="white"/>
</clipPath>
</defs>
</svg>
