<svg width="800" height="800" viewBox="0 0 800 800" fill="none" xmlns="http://www.w3.org/2000/svg">
<path d="M599.997 366.667C599.997 334.7 577.331 307.967 547.297 301.533C559.297 281.5 566.664 258.333 566.664 233.333C566.664 159.8 506.864 100 433.331 100C382.764 100 339.297 128.567 316.664 170.133C294.031 128.567 250.564 100 199.997 100C126.464 100 66.6641 159.8 66.6641 233.333C66.6641 263.4 77.0641 290.9 93.8974 313.2C85.4837 319.352 78.6348 327.398 73.9041 336.685C69.1733 345.973 66.6932 356.243 66.6641 366.667V633.333C66.6641 670.1 96.5641 700 133.331 700H533.331C570.097 700 599.997 670.1 599.997 633.333V545.4L733.331 612.067V378.733L599.997 445.4V366.667ZM433.331 166.667C470.097 166.667 499.997 196.567 499.997 233.333C499.997 270.1 470.097 300 433.331 300C396.564 300 366.664 270.1 366.664 233.333C366.664 196.567 396.564 166.667 433.331 166.667ZM199.997 166.667C236.764 166.667 266.664 196.567 266.664 233.333C266.664 270.1 236.764 300 199.997 300C163.231 300 133.331 270.1 133.331 233.333C133.331 196.567 163.231 166.667 199.997 166.667ZM133.331 633.333V366.667H533.331L533.397 633.333H133.331Z" fill="#71717A"/>
</svg>
