<svg width="800" height="800" viewBox="0 0 800 800" fill="none" xmlns="http://www.w3.org/2000/svg">
<path d="M600.003 333.331L466.669 199.997M83.3359 716.663L196.148 704.13C209.931 702.597 216.823 701.833 223.264 699.747C228.979 697.897 234.418 695.283 239.432 691.977C245.084 688.25 249.988 683.347 259.794 673.54L700.003 233.331C736.823 196.512 736.823 136.816 700.003 99.9969C663.186 63.1783 603.489 63.1779 566.669 99.9969L126.46 540.207C116.654 550.013 111.751 554.917 108.024 560.567C104.717 565.583 102.103 571.02 100.253 576.737C98.1679 583.177 97.4019 590.07 95.8706 603.853L83.3359 716.663Z" stroke="white" stroke-width="66.6667" stroke-linecap="round" stroke-linejoin="round"/>
</svg>
