<svg width="800" height="800" viewBox="0 0 800 800" fill="none" xmlns="http://www.w3.org/2000/svg">
<path d="M733.331 666.667C733.331 685.077 718.407 700 699.997 700C681.587 700 666.664 685.077 666.664 666.667V133.333C666.664 114.924 681.587 100 699.997 100C718.407 100 733.331 114.924 733.331 133.333V666.667Z" fill="black"/>
<path d="M343.094 590.237C330.076 577.22 330.076 556.113 343.094 543.097L452.857 433.333H99.9974C81.5877 433.333 66.6641 418.41 66.6641 400C66.6641 381.59 81.5877 366.667 99.9974 366.667H452.857L343.094 256.904C330.076 243.886 330.076 222.781 343.094 209.763C356.111 196.746 377.217 196.746 390.234 209.763L556.901 376.43C569.917 389.447 569.917 410.553 556.901 423.57L390.234 590.237C377.217 603.253 356.111 603.253 343.094 590.237Z" fill="black"/>
</svg>
