<svg width="800" height="800" viewBox="0 0 800 800" fill="none" xmlns="http://www.w3.org/2000/svg">
<g clip-path="url(#clip0_1125_107)">
<path d="M399.997 66.6641C584.091 66.6641 733.331 215.902 733.331 399.997C733.331 505.403 684.406 599.38 608.029 660.463L600.031 666.664H666.664C685.074 666.664 699.997 681.587 699.997 699.997C699.997 717.092 687.13 731.181 670.552 733.106L666.664 733.331H399.997C215.902 733.331 66.6641 584.091 66.6641 399.997C66.6641 215.902 215.902 66.6641 399.997 66.6641ZM399.997 133.331C252.721 133.331 133.331 252.721 133.331 399.997C133.331 547.274 252.721 666.664 399.997 666.664C547.274 666.664 666.664 547.274 666.664 399.997C666.664 252.721 547.274 133.331 399.997 133.331ZM399.997 466.664C436.817 466.664 466.664 496.511 466.664 533.331C466.664 570.151 436.817 599.997 399.997 599.997C363.177 599.997 333.331 570.151 333.331 533.331C333.331 496.511 363.177 466.664 399.997 466.664ZM266.664 333.331C303.483 333.331 333.331 363.177 333.331 399.997C333.331 436.817 303.483 466.664 266.664 466.664C229.845 466.664 199.997 436.817 199.997 399.997C199.997 363.177 229.845 333.331 266.664 333.331ZM533.331 333.331C570.151 333.331 599.997 363.177 599.997 399.997C599.997 436.817 570.151 466.664 533.331 466.664C496.511 466.664 466.664 436.817 466.664 399.997C466.664 363.177 496.511 333.331 533.331 333.331ZM399.997 199.997C436.817 199.997 466.664 229.845 466.664 266.664C466.664 303.483 436.817 333.331 399.997 333.331C363.177 333.331 333.331 303.483 333.331 266.664C333.331 229.845 363.177 199.997 399.997 199.997Z" fill="white"/>
</g>
<defs>
<clipPath id="clip0_1125_107">
<rect width="800" height="800" fill="white"/>
</clipPath>
</defs>
</svg>
