<svg width="800" height="800" viewBox="0 0 800 800" fill="none" xmlns="http://www.w3.org/2000/svg">
<path d="M366.664 266.664H666.664" stroke="#33363F" stroke-width="66.6667" stroke-linecap="round"/>
<path d="M133.336 533.336H466.669" stroke="#33363F" stroke-width="66.6667" stroke-linecap="round"/>
<path d="M133.336 266.664C133.336 321.893 178.107 366.664 233.336 366.664C288.564 366.664 333.336 321.893 333.336 266.664C333.336 211.436 288.564 166.664 233.336 166.664C178.107 166.664 133.336 211.436 133.336 266.664Z" stroke="#33363F" stroke-width="66.6667" stroke-linecap="round"/>
<path d="M466.664 533.336C466.664 588.564 511.436 633.336 566.664 633.336C621.893 633.336 666.664 588.564 666.664 533.336C666.664 478.107 621.893 433.336 566.664 433.336C511.436 433.336 466.664 478.107 466.664 533.336Z" stroke="#33363F" stroke-width="66.6667" stroke-linecap="round"/>
</svg>
