<svg width="800" height="800" viewBox="0 0 800 800" fill="none" xmlns="http://www.w3.org/2000/svg">
<path d="M700 600.003V233.336L600 300.003L400 333.336L166.667 300.003L100 233.336V600.003L300 383.336L433.333 500.003L550 433.336L650 583.336L700 600.003Z" fill="black"/>
<path d="M100 566.663L201.305 448.473C241.373 401.727 261.407 378.353 286.222 374.787C294.282 373.63 302.486 373.957 310.428 375.753C334.88 381.29 352.987 406.187 389.2 455.977L399.563 470.23C407.93 481.733 412.11 487.483 416.77 490.707C427.283 497.983 441.037 498.603 452.163 492.3C457.093 489.51 461.777 484.157 471.14 473.457C490.573 451.243 500.293 440.14 510.42 434.503C533.31 421.77 561.533 423.62 582.563 439.23C591.873 446.137 600.057 458.417 616.43 482.973L683.333 583.33" stroke="black" stroke-width="66.6667"/>
<path d="M233.336 316.667V150M566.669 316.667V150" stroke="black" stroke-width="66.6667" stroke-linecap="round"/>
<path d="M100 566.669V233.336M700 233.336V566.669" stroke="black" stroke-width="66.6667" stroke-linecap="round"/>
<path d="M567.327 150.336C620.727 162.298 661.177 179.665 682.707 199.875C704.233 220.085 705.703 242.067 686.89 262.575C668.08 283.084 629.987 301.034 578.233 313.775C526.48 326.517 463.81 333.374 399.473 333.337C335.133 333.299 272.536 326.368 220.919 313.566C169.301 300.764 131.397 282.769 112.803 262.239C94.208 241.708 95.907 219.728 117.649 199.544C139.391 179.359 180.024 162.039 233.551 150.141" stroke="black" stroke-width="66.6667" stroke-linecap="round"/>
<path d="M700 566.664C700 593.184 668.393 618.621 612.133 637.374C555.87 656.127 479.563 666.664 400 666.664C320.435 666.664 244.129 656.127 187.868 637.374C131.607 618.621 100 593.184 100 566.664" stroke="black" stroke-width="66.6667"/>
</svg>
