<svg width="800" height="800" viewBox="0 0 800 800" fill="none" xmlns="http://www.w3.org/2000/svg">
<path d="M133.331 266.669C170.15 266.669 199.997 236.822 199.997 200.003C199.997 163.184 170.15 133.336 133.331 133.336C96.5117 133.336 66.6641 163.184 66.6641 200.003C66.6641 236.822 96.5117 266.669 133.331 266.669Z" fill="white"/>
<path d="M133.331 466.669C170.15 466.669 199.997 436.823 199.997 400.003C199.997 363.183 170.15 333.336 133.331 333.336C96.5117 333.336 66.6641 363.183 66.6641 400.003C66.6641 436.823 96.5117 466.669 133.331 466.669Z" fill="white"/>
<path d="M199.997 600.003C199.997 636.823 170.15 666.669 133.331 666.669C96.5117 666.669 66.6641 636.823 66.6641 600.003C66.6641 563.183 96.5117 533.336 133.331 533.336C170.15 533.336 199.997 563.183 199.997 600.003Z" fill="white"/>
<path d="M699.997 250C718.407 250 733.331 235.076 733.331 216.667V183.333C733.331 164.924 718.407 150 699.997 150H299.997C281.588 150 266.664 164.924 266.664 183.333V216.667C266.664 235.076 281.588 250 299.997 250H699.997Z" fill="white"/>
<path d="M733.331 416.667C733.331 435.077 718.407 450 699.997 450H299.997C281.588 450 266.664 435.077 266.664 416.667V383.333C266.664 364.923 281.588 350 299.997 350H699.997C718.407 350 733.331 364.923 733.331 383.333V416.667Z" fill="white"/>
<path d="M699.997 650C718.407 650 733.331 635.077 733.331 616.667V583.333C733.331 564.923 718.407 550 699.997 550H299.997C281.588 550 266.664 564.923 266.664 583.333V616.667C266.664 635.077 281.588 650 299.997 650H699.997Z" fill="white"/>
</svg>
