<svg width="200" height="200" viewBox="0 0 200 200" fill="none" xmlns="http://www.w3.org/2000/svg">
<rect width="200" height="200" fill="black"/>
<path fill-rule="evenodd" clip-rule="evenodd" d="M29 52.6775C29 39.0484 40.0484 28 53.6775 28C67.3064 28 78.3549 39.0484 78.3549 52.6775C78.3549 66.3064 67.3064 77.3549 53.6775 77.3549C40.0484 77.3549 29 66.3064 29 52.6775ZM53.6775 16C33.4211 16 17 32.4211 17 52.6775C17 72.9339 33.4211 89.3549 53.6775 89.3549C73.9339 89.3549 90.3549 72.9339 90.3549 52.6775C90.3549 32.4211 73.9339 16 53.6775 16ZM77.9484 146.013L33.6769 170.503V121.522L77.9484 146.013ZM35.5283 108.833C29.3076 105.391 21.6769 109.89 21.6769 116.999V175.026C21.6769 182.135 29.3076 186.634 35.5283 183.193L87.9752 154.179C94.3957 150.627 94.3957 141.398 87.9752 137.846L35.5283 108.833Z" fill="white"/>
<path d="M111 83V23L141.236 83L171 23V83" stroke="white" stroke-width="10" stroke-linecap="round" stroke-linejoin="round"/>
<path d="M154.88 144.498C154.88 144.498 169.942 152.562 170 161.027C170.049 168.244 161.9 175.553 159.2 176.555C156.5 177.557 116 176.555 116 176.555V144.498M154.88 144.498C154.88 144.498 166.22 134.981 166.22 126.967C166.22 118.953 158.12 115.447 154.88 114.445C151.64 113.443 116 114.445 116 114.445V144.498M154.88 144.498H119.78H116" stroke="white" stroke-width="10" stroke-linecap="round" stroke-linejoin="round"/>
</svg>
