<svg width="800" height="800" viewBox="0 0 800 800" fill="none" xmlns="http://www.w3.org/2000/svg">
<g clip-path="url(#clip0_1125_104)">
<path d="M290.537 725.033C268.616 725.122 247.395 717.315 230.759 703.041C214.122 688.766 203.18 668.979 199.937 647.299L141.97 270.499C141.422 266.935 141.652 263.294 142.643 259.827C143.634 256.359 145.364 253.147 147.714 250.411C150.063 247.675 152.977 245.48 156.255 243.976C159.533 242.473 163.097 241.696 166.704 241.699H176.704C173.951 229.725 173.942 217.283 176.679 205.306C179.415 193.328 184.825 182.124 192.504 172.533C202.021 161.266 214.305 152.668 228.149 147.583C241.994 142.499 256.923 141.103 271.47 143.533C275.301 130.105 282.557 117.904 292.527 108.127C302.496 98.3503 314.837 91.3337 328.337 87.7659C341.992 84.2567 356.297 84.1318 370.011 87.4021C383.725 90.6724 396.435 97.2391 407.037 106.533C417.084 94.3484 430.314 85.1901 445.256 80.0762C460.197 74.9623 476.264 74.0934 491.67 77.5659C505.869 80.8221 518.833 88.0887 529.021 98.5009C539.209 108.913 546.191 122.033 549.137 136.299C565.289 137.531 580.738 143.42 593.611 153.253C606.485 163.086 616.231 176.44 621.67 191.699C627.268 207.792 628.056 225.166 623.937 241.699H633.37C636.977 241.696 640.541 242.473 643.819 243.976C647.097 245.48 650.01 247.675 652.36 250.411C654.709 253.147 656.439 256.359 657.431 259.827C658.422 263.294 658.652 266.935 658.103 270.499L600.104 647.166C596.901 668.882 585.972 688.713 569.322 703.018C552.672 717.322 531.421 725.139 509.47 725.033H290.537ZM509.47 675.033C519.439 675.085 529.093 671.541 536.661 665.051C544.229 658.561 549.203 649.56 550.67 639.699L604.204 291.699H508.737L491.304 675.033H509.47ZM441.27 675.033L458.67 291.699H341.304L358.737 675.033H441.27ZM249.337 639.699C250.811 649.557 255.787 658.554 263.353 665.043C270.919 671.532 280.569 675.078 290.537 675.033H308.67L291.27 291.699H195.837L249.337 639.699ZM571.837 241.699C576.475 231.696 577.591 220.418 575.003 209.699C568.103 191.699 554.803 184.166 529.07 185.533C525.778 185.708 522.484 185.23 519.377 184.127C516.271 183.023 513.413 181.317 510.968 179.105C508.524 176.893 506.541 174.219 505.134 171.237C503.727 168.256 502.924 165.026 502.77 161.733C501.737 139.699 494.703 129.866 479.603 125.999C464.503 122.133 448.77 130.866 429.603 157.633C427.405 160.69 424.545 163.211 421.236 165.009C417.928 166.808 414.256 167.837 410.495 168.019C406.734 168.202 402.98 167.534 399.513 166.064C396.046 164.595 392.955 162.362 390.47 159.533C372.137 138.599 356.604 132.099 341.47 136.199C326.87 140.099 318.337 151.766 315.204 176.599C314.73 180.241 313.461 183.733 311.487 186.829C309.513 189.926 306.882 192.55 303.781 194.515C300.68 196.481 297.184 197.741 293.541 198.205C289.899 198.668 286.199 198.325 282.704 197.199C257.204 188.933 241.67 192.033 230.37 205.033C227.064 210.498 225.091 216.666 224.61 223.036C224.129 229.406 225.155 235.799 227.604 241.699H571.837Z" fill="white"/>
</g>
<defs>
<clipPath id="clip0_1125_104">
<rect width="800" height="800" fill="white"/>
</clipPath>
</defs>
</svg>
