<svg width="800" height="800" viewBox="0 0 800 800" fill="none" xmlns="http://www.w3.org/2000/svg">
<path d="M400.003 304.664L419.669 346.331L463.669 353.331L432.003 385.664L439.336 431.997L400.003 409.997L360.669 431.997L368.003 385.664L336.336 353.331L380.336 346.331L400.003 304.664Z" fill="white"/>
<path d="M591.003 304.664L610.669 346.331L654.669 353.331L622.669 385.664L630.336 431.997L591.003 409.997L551.669 431.997L559.003 385.664L527.336 353.331L571.336 346.331L591.003 304.664Z" fill="white"/>
<path d="M209.003 304.664L228.669 346.331L272.669 353.331L241.003 385.664L248.336 431.997L209.003 409.997L169.669 431.997L177.336 385.664L145.336 353.331L189.336 346.331L209.003 304.664Z" fill="white"/>
<path d="M50 272.667V463.667C50 480.552 56.7077 496.746 68.6475 508.686C80.5874 520.626 96.7812 527.333 113.667 527.333H336.333L400 591L463.667 527.333H686.333C703.219 527.333 719.413 520.626 731.352 508.686C743.292 496.746 750 480.552 750 463.667V272.667C750 255.781 743.292 239.587 731.352 227.648C719.413 215.708 703.219 209 686.333 209H113.667C96.7812 209 80.5874 215.708 68.6475 227.648C56.7077 239.587 50 255.781 50 272.667Z" stroke="white" stroke-width="63.6667" stroke-miterlimit="10"/>
</svg>
