<svg width="800" height="800" viewBox="0 0 800 800" fill="none" xmlns="http://www.w3.org/2000/svg">
<path d="M258.653 84.4797C199.185 118.811 156.642 174.254 138.871 240.581C121.096 306.909 130.221 376.192 164.553 435.66C210.344 514.968 295.727 564.237 387.389 564.237C416.331 564.237 445.049 559.255 472.273 549.695L587.919 750L670.376 702.392L554.749 502.121C593.807 468.704 621.926 424.383 635.519 373.656C653.291 307.328 644.165 238.048 609.834 178.576C564.046 99.2687 478.66 50 387.001 50C342.104 50 297.722 61.9211 258.653 84.4797ZM527.376 226.184C548.994 263.627 554.738 307.252 543.548 349.014C532.358 390.775 505.572 425.682 468.129 447.3C443.517 461.51 415.596 469.02 387.389 469.02C329.639 469.02 275.849 437.995 247.014 388.052C225.396 350.609 219.652 306.989 230.846 265.223C242.036 223.461 268.822 188.555 306.265 166.933C330.873 152.727 358.794 145.216 387.001 145.216C444.755 145.216 498.541 176.242 527.376 226.184Z" fill="black"/>
</svg>
