<svg width="800" height="800" viewBox="0 0 800 800" fill="none" xmlns="http://www.w3.org/2000/svg">
<path d="M678.33 297.431L666.123 290.64C664.23 289.585 663.297 289.056 662.38 288.508C653.277 283.055 645.607 275.521 640.007 266.508C639.443 265.601 638.913 264.65 637.827 262.77C636.743 260.892 636.193 259.941 635.687 258.999C630.667 249.622 627.95 239.172 627.787 228.535C627.77 227.466 627.773 226.374 627.81 224.201L628.05 210.026C628.43 187.342 628.623 175.965 625.433 165.754C622.603 156.684 617.867 148.331 611.54 141.242C604.39 133.228 594.49 127.511 574.673 116.092L558.213 106.607C538.453 95.2192 528.57 89.5235 518.077 87.3522C508.797 85.4312 499.217 85.5202 489.97 87.5962C479.53 89.9396 469.77 95.7835 450.263 107.465L450.15 107.518L438.357 114.58C436.493 115.697 435.55 116.26 434.613 116.779C425.337 121.937 414.983 124.788 404.373 125.129C403.307 125.163 402.217 125.163 400.043 125.163C397.883 125.163 396.747 125.163 395.68 125.129C385.05 124.787 374.673 121.92 365.383 116.741C364.447 116.219 363.52 115.652 361.653 114.53L349.783 107.404C330.141 95.6119 320.305 89.7069 309.809 87.3522C300.523 85.2689 290.912 85.2112 281.597 87.1569C271.079 89.3539 261.192 95.0919 241.419 106.568L241.331 106.607L225.076 116.041L224.896 116.151C205.301 127.524 195.48 133.224 188.39 141.205C182.098 148.287 177.395 156.627 174.58 165.673C171.398 175.897 171.568 187.299 171.951 210.09L172.189 224.245C172.225 226.389 172.288 227.454 172.272 228.508C172.114 239.166 169.362 249.638 164.325 259.032C163.827 259.961 163.29 260.89 162.218 262.746C161.145 264.603 160.626 265.526 160.07 266.423C154.445 275.484 146.738 283.062 137.578 288.524C136.672 289.064 135.717 289.584 133.84 290.624L121.788 297.303C101.736 308.415 91.7123 313.976 84.4186 321.89C77.9659 328.891 73.0916 337.193 70.1163 346.24C66.7529 356.463 66.7556 367.927 66.8079 390.85L66.8503 409.59C66.9019 432.36 66.9729 443.74 70.3439 453.893C73.3263 462.877 78.1649 471.133 84.5813 478.09C91.8339 485.957 101.758 491.483 121.658 502.553L133.603 509.2C135.636 510.33 136.659 510.887 137.639 511.48C146.716 516.943 154.363 524.5 159.939 533.51C160.542 534.483 161.12 535.493 162.277 537.517C163.419 539.51 164.003 540.506 164.531 541.506C169.42 550.763 172.038 561.05 172.216 571.517C172.236 572.647 172.219 573.79 172.18 576.09L171.951 589.673C171.565 612.543 171.397 623.99 174.597 634.243C177.429 643.313 182.161 651.666 188.488 658.756C195.638 666.77 205.552 672.483 225.369 683.903L241.826 693.383C261.588 704.773 271.465 710.46 281.956 712.633C291.238 714.553 300.821 714.48 310.07 712.403C320.522 710.057 330.316 704.193 349.88 692.477L361.673 685.417C363.54 684.297 364.487 683.737 365.42 683.217C374.697 678.06 385.04 675.193 395.65 674.853C396.717 674.82 397.807 674.82 399.98 674.82C402.16 674.82 403.247 674.82 404.317 674.853C414.947 675.197 425.357 678.073 434.647 683.25C435.463 683.706 436.283 684.2 437.72 685.063L450.26 692.59C469.903 704.383 479.72 710.27 490.217 712.626C499.5 714.71 509.12 714.793 518.437 712.85C528.95 710.653 538.857 704.903 558.62 693.433L575.12 683.856C594.727 672.476 604.557 666.77 611.65 658.786C617.943 651.706 622.653 643.37 625.467 634.323C628.627 624.173 628.437 612.86 628.057 590.397L627.81 575.747C627.773 573.603 627.77 572.537 627.787 571.483C627.943 560.823 630.65 550.347 635.687 540.953C636.187 540.023 636.727 539.087 637.793 537.237C638.867 535.383 639.423 534.457 639.98 533.56C645.603 524.497 653.317 516.913 662.48 511.45C663.373 510.917 664.297 510.407 666.127 509.393L666.19 509.363L678.24 502.683C698.293 491.573 708.337 486.003 715.63 478.09C722.083 471.09 726.95 462.797 729.927 453.753C733.27 443.59 733.243 432.193 733.193 409.537L733.15 390.397C733.097 367.623 733.07 356.247 729.7 346.093C726.717 337.11 721.85 328.854 715.433 321.895C708.19 314.037 698.25 308.509 678.39 297.459L678.33 297.431Z" stroke="black" stroke-width="66.6667" stroke-linecap="round" stroke-linejoin="round"/>
<path d="M266.68 399.999C266.68 473.635 326.375 533.332 400.012 533.332C473.652 533.332 533.345 473.635 533.345 399.999C533.345 326.359 473.652 266.664 400.012 266.664C326.375 266.664 266.68 326.359 266.68 399.999Z" stroke="black" stroke-width="66.6667" stroke-linecap="round" stroke-linejoin="round"/>
</svg>
