<svg width="800" height="800" viewBox="0 0 800 800" fill="none" xmlns="http://www.w3.org/2000/svg">
<path d="M66.9974 133.333C66.9974 114.923 81.9207 100 100.331 100C118.741 100 133.664 114.923 133.664 133.333L133.664 666.667C133.664 685.076 118.741 700 100.331 700C81.9207 700 66.9974 685.076 66.9974 666.667L66.9974 133.333Z" fill="black"/>
<path d="M457.234 209.763C470.252 222.78 470.252 243.887 457.234 256.903L347.471 366.667L700.331 366.667C718.74 366.667 733.664 381.59 733.664 400C733.664 418.41 718.74 433.333 700.331 433.333L347.471 433.333L457.234 543.096C470.252 556.114 470.252 577.219 457.234 590.237C444.217 603.254 423.111 603.254 410.094 590.237L243.427 423.57C230.411 410.553 230.411 389.447 243.427 376.43L410.094 209.763C423.111 196.747 444.217 196.747 457.234 209.763Z" fill="black"/>
</svg>
