<svg width="800" height="800" viewBox="0 0 800 800" fill="none" xmlns="http://www.w3.org/2000/svg">
<path d="M427.861 78.0328C422.935 67.0601 412.027 60 399.999 60C387.974 60 377.066 67.0601 372.141 78.0328L286.119 269.696L77.255 292.28C65.2971 293.573 55.2124 301.765 51.4957 313.204C47.779 324.642 51.123 337.196 60.037 345.273L215.737 486.31L172.673 691.931C170.208 703.703 174.882 715.826 184.613 722.895C194.343 729.965 207.317 730.664 217.751 724.682L399.999 620.185L582.251 724.682C592.685 730.664 605.657 729.965 615.389 722.895C625.118 715.826 629.793 703.703 627.326 691.931L584.263 486.31L739.963 345.273C748.877 337.196 752.221 324.642 748.504 313.204C744.788 301.765 734.705 293.573 722.747 292.28L513.882 269.696L427.861 78.0328Z" fill="white"/>
</svg>
