<svg width="800" height="800" viewBox="0 0 800 800" fill="none" xmlns="http://www.w3.org/2000/svg">
<path d="M571.305 100L588.952 130.565M588.952 130.565L374.999 254.094C366.893 258.775 360.978 266.483 358.556 275.525C356.133 284.566 357.401 294.2 362.081 302.306M588.952 130.565L694.834 313.953M712.481 344.518L694.834 313.953M694.834 313.953L480.881 437.482C472.775 442.162 463.142 443.431 454.1 441.008C445.059 438.586 437.35 432.671 432.67 424.565M362.081 302.306L178.693 408.188C170.587 412.869 164.672 420.577 162.25 429.619C159.827 438.66 161.095 448.294 165.776 456.4M362.081 302.306L432.67 424.565M432.67 424.565L325.728 486.329L236.328 700M165.776 456.4L104.646 491.694C96.54 496.375 90.6251 504.083 88.2026 513.125C85.7801 522.166 87.0484 531.8 91.7284 539.906C96.4089 548.012 104.118 553.927 113.159 556.349C122.2 558.772 131.834 557.504 139.94 552.824L201.07 517.529M165.776 456.4L201.07 517.529M201.07 517.529C205.75 525.636 213.459 531.55 222.5 533.973C231.542 536.395 241.175 535.127 249.281 530.447L325.693 486.329L444.67 700" stroke="black" stroke-width="66.6667" stroke-linecap="round" stroke-linejoin="round"/>
</svg>
