<svg width="800" height="800" viewBox="0 0 800 800" fill="none" xmlns="http://www.w3.org/2000/svg">
<path d="M589.759 636.645L608.282 244.161H635.127C646.135 244.161 654.992 235.033 654.992 224.027C654.992 213.02 646.135 203.624 635.127 203.624H517.812V163.355C517.812 124.967 491.772 100 450.43 100H350.027C308.684 100 282.913 124.967 282.913 163.355V203.624H166.134C155.396 203.624 146 213.02 146 224.027C146 235.033 155.396 244.161 166.134 244.161H192.98L211.503 636.913C213.382 675.571 238.886 700 277.544 700H523.719C562.108 700 587.88 675.301 589.759 636.645ZM325.866 166.04C325.866 150.738 337.141 140 353.249 140H447.476C463.852 140 475.128 150.738 475.128 166.04V203.624H325.866V166.04ZM281.571 659.732C266 659.732 254.456 647.919 253.651 632.35L234.859 244.161H565.329L547.611 632.35C546.806 648.188 535.53 659.732 519.691 659.732H281.571ZM480.228 612.483C489.087 612.483 495.799 605.235 496.067 595.033L504.121 311.543C504.39 301.342 497.41 293.826 488.282 293.826C479.96 293.826 472.98 301.611 472.712 311.275L464.658 595.033C464.39 604.698 471.101 612.483 480.228 612.483ZM321.034 612.483C330.162 612.483 336.873 604.698 336.604 595.033L328.55 311.275C328.282 301.611 321.034 293.826 312.712 293.826C303.584 293.826 296.873 301.342 297.141 311.543L305.463 595.033C305.731 605.235 312.174 612.483 321.034 612.483ZM416.873 595.033V311.275C416.873 301.611 409.624 293.826 400.765 293.826C391.906 293.826 384.389 301.611 384.389 311.275V595.033C384.389 604.698 391.906 612.483 400.765 612.483C409.356 612.483 416.873 604.698 416.873 595.033Z" fill="#7F1D1D"/>
</svg>
